<?xml version="1.0" encoding="UTF-8"?>
<svg width="28px" height="28px" viewBox="0 0 28 28" version="1.1" xmlns="http://www.w3.org/2000/svg" xmlns:xlink="http://www.w3.org/1999/xlink">
    <!-- Generator: Sketch 47.1 (45422) - http://www.bohemiancoding.com/sketch -->
    <title>social-twitter</title>
    <desc>Created with Sketch.</desc>
    <defs></defs>
    <g id="Page-1" stroke="none" stroke-width="1" fill="none" fill-rule="evenodd">
        <g id="Macbook-Air" transform="translate(-876.000000, -6605.000000)">
            <g id="social-twitter" transform="translate(876.000000, 6605.000000)">
                <rect id="bounds-copy" fill="#FFFFFF" x="0" y="0" width="28" height="28"></rect>
                <path d="M14.0714286,12.3571429 C13.6726171,12.9404791 13.190479,13.4374979 12.625,13.8482143 C12.6309524,13.931548 12.6339286,14.0565468 12.6339286,14.2232143 C12.6339286,14.9970277 12.5208345,15.7693414 12.2946429,16.5401786 C12.0684513,17.3110158 11.7247047,18.0505917 11.2633929,18.7589286 C10.802081,19.4672654 10.2529794,20.0937473 9.61607143,20.6383929 C8.97916348,21.1830384 8.21131402,21.6175579 7.3125,21.9419643 C6.41368598,22.2663707 5.45238607,22.4285714 4.42857143,22.4285714 C2.81546812,22.4285714 1.33929241,21.9970281 0,21.1339286 C0.208334375,21.1577382 0.440474911,21.1696429 0.696428571,21.1696429 C2.03572098,21.1696429 3.22916143,20.7589327 4.27678571,19.9375 C3.65178259,19.9255952 3.09226438,19.7336328 2.59821429,19.3616071 C2.1041642,18.9895815 1.76488188,18.5148838 1.58035714,17.9375 C1.7767867,17.9672621 1.9583325,17.9821429 2.125,17.9821429 C2.38095366,17.9821429 2.63392732,17.9494051 2.88392857,17.8839286 C2.21725857,17.7470231 1.66518076,17.4151812 1.22767857,16.8883929 C0.790176384,16.3616045 0.571428571,15.7500035 0.571428571,15.0535714 L0.571428571,15.0178571 C0.9761925,15.2440487 1.41071196,15.3660713 1.875,15.3839286 C1.48214089,15.1220225 1.16964402,14.779764 0.9375,14.3571429 C0.705355982,13.9345217 0.589285714,13.4761929 0.589285714,12.9821429 C0.589285714,12.4583307 0.720236786,11.9732165 0.982142857,11.5267857 C1.70238455,12.4136949 2.57886388,13.1235092 3.61160714,13.65625 C4.6443504,14.1889908 5.74999411,14.4851187 6.92857143,14.5446429 C6.88095214,14.3184513 6.85714286,14.0982154 6.85714286,13.8839286 C6.85714286,13.0863055 7.13839004,12.4062528 7.70089286,11.84375 C8.26339567,11.2812472 8.94344839,11 9.74107143,11 C10.5744089,11 11.2767829,11.3035684 11.8482143,11.9107143 C12.4970271,11.7857137 13.10714,11.5535731 13.6785714,11.2142857 C13.4583322,11.8988129 13.0357174,12.4285696 12.4107143,12.8035714 C12.9642885,12.7440473 13.5178544,12.5952393 14.0714286,12.3571429 Z" id="twitter---FontAwesome" fill="#808080"></path>
            </g>
        </g>
    </g>
</svg>