<?xml version="1.0" encoding="UTF-8"?>
<svg width="28px" height="28px" viewBox="0 0 28 28" version="1.1" xmlns="http://www.w3.org/2000/svg" xmlns:xlink="http://www.w3.org/1999/xlink">
    <!-- Generator: Sketch 47.1 (45422) - http://www.bohemiancoding.com/sketch -->
    <title>social-linkedin</title>
    <desc>Created with Sketch.</desc>
    <defs></defs>
    <g id="Page-1" stroke="none" stroke-width="1" fill="none" fill-rule="evenodd">
        <g id="Macbook-Air" transform="translate(-920.000000, -6605.000000)">
            <g id="social-linkedin" transform="translate(920.000000, 6605.000000)">
                <rect id="bounds-copy-2" fill="#FFFFFF" x="0" y="0" width="28" height="28"></rect>
                <path d="M3.11607143,13.2589286 L3.11607143,22.1071429 L0.169642857,22.1071429 L0.169642857,13.2589286 L3.11607143,13.2589286 Z M3.30357143,10.5267857 C3.30952384,10.9613117 3.15922772,11.3244033 2.85267857,11.6160714 C2.54612942,11.9077396 2.14285964,12.0535714 1.64285714,12.0535714 L1.625,12.0535714 C1.13690232,12.0535714 0.744049107,11.9077396 0.446428571,11.6160714 C0.148808036,11.3244033 0,10.9613117 0,10.5267857 C0,10.0863073 0.153272277,9.72172763 0.459821429,9.43303571 C0.76637058,9.14434379 1.1666642,9 1.66071429,9 C2.15476438,9 2.55059375,9.14434379 2.84821429,9.43303571 C3.14583482,9.72172763 3.29761902,10.0863073 3.30357143,10.5267857 Z M7.67857143,14.5162852 C7.79195692,14.3375794 7.9080273,14.1803668 8.02678571,14.0446429 C8.15178634,13.901785 8.31993942,13.7470246 8.53125,13.5803571 C8.74256058,13.4136896 9.00148656,13.2842267 9.30803571,13.1919643 C9.61458487,13.0997019 9.95535527,13.0535714 10.3303571,13.0535714 C11.3482194,13.0535714 12.1666636,13.3913657 12.7857143,14.0669643 C13.404765,14.7425629 13.7142857,15.7321363 13.7142857,17.0357143 L13.7142857,22.1071429 L10.7767857,22.1071429 L10.7767857,17.375 C10.7767857,16.7499969 10.6562512,16.2604184 10.4151786,15.90625 C10.1741059,15.5520816 9.79762161,15.375 9.28571429,15.375 C8.91071241,15.375 8.59672746,15.4776775 8.34375,15.6830357 C8.09077254,15.8883939 7.90178634,16.1428556 7.77678571,16.4464286 C7.7113092,16.6250009 7.67857143,16.8660699 7.67857143,17.1696429 L7.67857143,22.1071429 L4.74107143,22.1071429 C4.75297625,19.732131 4.75892857,17.806555 4.75892857,16.3303571 C4.75892857,14.8541593 4.75595241,13.9732157 4.75,13.6875 L4.74107143,13.2589286 L7.67857143,13.2589286 L7.67857143,14.5162852 L7.67857143,14.5162852 Z" id="LinkedIn---FontAwesome" fill="#808080"></path>
            </g>
        </g>
    </g>
</svg>