<?xml version="1.0" encoding="UTF-8"?>
<svg width="30px" height="18px" viewBox="0 0 30 18" version="1.1" xmlns="http://www.w3.org/2000/svg" xmlns:xlink="http://www.w3.org/1999/xlink">
    <!-- Generator: Sketch 47.1 (45422) - http://www.bohemiancoding.com/sketch -->
    <title>icon-mb-arrow-tail-right</title>
    <desc>Created with Sketch.</desc>
    <defs></defs>
    <g id="Page-1" stroke="none" stroke-width="1" fill="none" fill-rule="evenodd">
        <g id="Macbook-Air" transform="translate(-1080.000000, -3527.000000)" fill="#1E2B31">
            <g id="button-action-wrapper" transform="translate(1080.000000, 3527.000000)">
                <path d="M37.7238413,9.79990232 L30.291439,16.9794721 C30.1700055,17.0967748 30.1092896,17.2375358 30.1092896,17.4017595 C30.1092896,17.5659832 30.1700055,17.7067443 30.291439,17.8240469 C30.4128725,17.9413496 30.5616263,18 30.7377049,18 C30.9137835,18 31.0625373,17.9413496 31.1839709,17.8240469 L39.8178506,9.48387097 C39.9392842,9.36656833 40,9.22580727 40,9.06158358 C40,8.89735988 39.9392842,8.75659883 39.8178506,8.63929619 L31.0564663,0.175953079 C30.9957495,0.11730176 30.9259263,0.0733139296 30.8469945,0.0439882698 C30.7680628,0.01466261 30.6921679,0 30.6193078,0 C30.5343044,0 30.4553738,0.01466261 30.3825137,0.0439882698 C30.3096536,0.0733139296 30.2428661,0.11730176 30.1821494,0.175953079 C30.0607158,0.293255718 30,0.436949296 30,0.607038123 C30,0.77712695 30.0607158,0.920820528 30.1821494,1.03812317 L37.8031776,8.39990234 L0.699999988,8.39990234 L0.699999988,8.39990234 C0.31340067,8.39990234 -4.73447618e-17,8.71330301 0,9.09990233 C4.73447618e-17,9.48650165 0.31340067,9.79990232 0.699999988,9.79990232 L0.699999988,9.79990232 L37.7238413,9.79990232 Z" id="arrow-left"></path>
            </g>
        </g>
    </g>
</svg>