<?xml version="1.0" encoding="UTF-8"?>
<svg width="24px" height="24px" viewBox="0 0 24 24" version="1.1" xmlns="http://www.w3.org/2000/svg" xmlns:xlink="http://www.w3.org/1999/xlink">
    <!-- Generator: Sketch 47.1 (45422) - http://www.bohemiancoding.com/sketch -->
    <title>icon-submit-form@2x</title>
    <desc>Created with Sketch.</desc>
    <defs></defs>
    <g id="button" stroke="none" stroke-width="1" fill="none" fill-rule="evenodd">
        <g id="Artboard" transform="translate(-264.000000, -141.000000)" fill="#1E2B31">
            <path d="M283.714286,158.409091 L283.714286,150.772727 C283.499999,151.011365 283.268974,151.230113 283.021205,151.428977 C281.226554,152.794514 279.800229,153.914768 278.742188,154.789773 C278.400668,155.074812 278.122769,155.296874 277.908482,155.455966 C277.694195,155.615058 277.404578,155.775804 277.039621,155.93821 C276.674663,156.100616 276.331475,156.181818 276.010045,156.181818 L275.989955,156.181818 C275.668525,156.181818 275.325337,156.100616 274.960379,155.93821 C274.595422,155.775804 274.305805,155.615058 274.091518,155.455966 C273.877231,155.296874 273.599332,155.074812 273.257812,154.789773 C272.199771,153.914768 270.773446,152.794514 268.978795,151.428977 C268.731026,151.230113 268.500001,151.011365 268.285714,150.772727 L268.285714,158.409091 C268.285714,158.495266 268.317522,158.569839 268.381138,158.632813 C268.444755,158.695786 268.520089,158.727273 268.607143,158.727273 L283.392857,158.727273 C283.479911,158.727273 283.555245,158.695786 283.618862,158.632813 C283.682478,158.569839 283.714286,158.495266 283.714286,158.409091 Z M283.714286,147.958807 L283.714286,147.715199 C283.714286,147.685369 283.712612,147.642282 283.709263,147.585938 C283.705915,147.529593 283.695871,147.488163 283.679129,147.461648 C283.662388,147.435132 283.643973,147.405303 283.623884,147.372159 C283.603795,147.339015 283.573661,147.314157 283.533482,147.297585 C283.493303,147.281013 283.446429,147.272727 283.392857,147.272727 L268.607143,147.272727 C268.520089,147.272727 268.444755,147.304214 268.381138,147.367188 C268.317522,147.430161 268.285714,147.504734 268.285714,147.590909 C268.285714,148.704551 268.777897,149.645829 269.762277,150.414773 C271.054694,151.422354 272.397314,152.473006 273.790179,153.566761 C273.830357,153.599905 273.947544,153.697679 274.141741,153.860085 C274.335938,154.022491 274.489955,154.14678 274.603795,154.232955 C274.717634,154.319129 274.866629,154.423532 275.050781,154.546165 C275.234934,154.668798 275.404017,154.759943 275.558036,154.819602 C275.712054,154.879262 275.856026,154.909091 275.989955,154.909091 L276.010045,154.909091 C276.143974,154.909091 276.287946,154.879262 276.441964,154.819602 C276.595983,154.759943 276.765066,154.668798 276.949219,154.546165 C277.133371,154.423532 277.282366,154.319129 277.396205,154.232955 C277.510045,154.14678 277.664062,154.022491 277.858259,153.860085 C278.052456,153.697679 278.169643,153.599905 278.209821,153.566761 C279.602686,152.473006 280.945306,151.422354 282.237723,150.414773 C282.599332,150.129733 282.935824,149.746925 283.24721,149.266335 C283.558595,148.785746 283.714286,148.349907 283.714286,147.958807 Z M285,147.590909 L285,158.409091 C285,158.846593 284.842636,159.221116 284.527902,159.53267 C284.213168,159.844225 283.834824,160 283.392857,160 L268.607143,160 C268.165176,160 267.786832,159.844225 267.472098,159.53267 C267.157364,159.221116 267,158.846593 267,158.409091 L267,147.590909 C267,147.153407 267.157364,146.778884 267.472098,146.46733 C267.786832,146.155775 268.165176,146 268.607143,146 L283.392857,146 C283.834824,146 284.213168,146.155775 284.527902,146.46733 C284.842636,146.778884 285,147.153407 285,147.590909 Z" id="envelope-o---FontAwesome"></path>
        </g>
    </g>
</svg>