<?xml version="1.0" encoding="UTF-8"?>
<svg width="138px" height="15px" viewBox="0 0 138 15" version="1.1" xmlns="http://www.w3.org/2000/svg" xmlns:xlink="http://www.w3.org/1999/xlink">
    <!-- Generator: Sketch 47.1 (45422) - http://www.bohemiancoding.com/sketch -->
    <title>MAXSOLUTION</title>
    <desc>Created with Sketch.</desc>
    <defs></defs>
    <g id="Page-1" stroke="none" stroke-width="1" fill="none" fill-rule="evenodd">
        <g id="Macbook-Air" transform="translate(-151.000000, -6563.000000)" fill="#808080">
            <g id="footer-left" transform="translate(150.000000, 6563.000000)">
                <path d="M7.25097656,14 L3.52441406,3.26855469 L3.45410156,3.26855469 C3.55371144,4.86231266 3.60351562,6.35643834 3.60351562,7.75097656 L3.60351562,14 L1.69628906,14 L1.69628906,1.15039062 L4.65820312,1.15039062 L8.2265625,11.3720703 L8.27929688,11.3720703 L11.953125,1.15039062 L14.9238281,1.15039062 L14.9238281,14 L12.9023438,14 L12.9023438,7.64550781 C12.9023438,7.00683274 12.9184569,6.17480981 12.9506836,5.14941406 C12.9829103,4.12401831 13.0107421,3.50293077 13.0341797,3.28613281 L12.9638672,3.28613281 L9.10546875,14 L7.25097656,14 Z M27.2792969,14 L25.9960938,10.4316406 L21.0830078,10.4316406 L19.8261719,14 L17.6113281,14 L22.4189453,1.09765625 L24.7041016,1.09765625 L29.5117188,14 L27.2792969,14 Z M25.4423828,8.62109375 L24.2382812,5.12304688 C24.1503902,4.8886707 24.0288094,4.51953377 23.8735352,4.015625 C23.7182609,3.51171623 23.6113284,3.1425793 23.5527344,2.90820312 C23.3945305,3.62890985 23.1630875,4.41698791 22.8583984,5.27246094 L21.6982422,8.62109375 L25.4423828,8.62109375 Z M41.6738281,14 L39.2568359,14 L36.0400391,8.74414062 L32.796875,14 L30.546875,14 L34.8095703,7.33789062 L30.8193359,1.15039062 L33.1572266,1.15039062 L36.1279297,6.01074219 L39.0986328,1.15039062 L41.3662109,1.15039062 L37.3496094,7.37304688 L41.6738281,14 Z M51.8144531,10.5107422 C51.8144531,11.653326 51.4013713,12.5498014 50.5751953,13.2001953 C49.7490193,13.8505892 48.6093823,14.1757812 47.15625,14.1757812 C45.7031177,14.1757812 44.5136765,13.9501976 43.5878906,13.4990234 L43.5878906,11.5126953 C44.1738311,11.7880873 44.7963834,12.004882 45.4555664,12.1630859 C46.1147494,12.3212899 46.7285128,12.4003906 47.296875,12.4003906 C48.1289104,12.4003906 48.7426738,12.2421891 49.1381836,11.9257812 C49.5336934,11.6093734 49.7314453,11.184573 49.7314453,10.6513672 C49.7314453,10.170896 49.5498065,9.76367354 49.1865234,9.4296875 C48.8232404,9.09570146 48.0732479,8.7001976 46.9365234,8.24316406 C45.7646426,7.76855231 44.938479,7.22656555 44.4580078,6.6171875 C43.9775367,6.00780945 43.7373047,5.2753949 43.7373047,4.41992188 C43.7373047,3.34765089 44.1181603,2.50390933 44.8798828,1.88867188 C45.6416054,1.27343442 46.6640561,0.965820312 47.9472656,0.965820312 C49.1777405,0.965820312 50.4023377,1.23534887 51.6210938,1.77441406 L50.953125,3.48828125 C49.8105412,3.0078101 48.7910201,2.76757812 47.8945312,2.76757812 C47.2148404,2.76757812 46.6992205,2.91552586 46.3476562,3.21142578 C45.996092,3.5073257 45.8203125,3.89843507 45.8203125,4.38476562 C45.8203125,4.71875167 45.8906243,5.00439334 46.03125,5.24169922 C46.1718757,5.47900509 46.4033187,5.70312395 46.7255859,5.9140625 C47.0478532,6.12500105 47.6279255,6.40331858 48.4658203,6.74902344 C49.4091844,7.14160353 50.1005837,7.5078108 50.5400391,7.84765625 C50.9794944,8.1875017 51.3017568,8.57128692 51.5068359,8.99902344 C51.7119151,9.42675995 51.8144531,9.93066116 51.8144531,10.5107422 Z M66.7099609,7.55761719 C66.7099609,9.64942452 66.1870169,11.2753848 65.1411133,12.4355469 C64.0952096,13.5957089 62.6142674,14.1757812 60.6982422,14.1757812 C58.7587794,14.1757812 57.2690482,13.6001034 56.2290039,12.4487305 C55.1889596,11.2973575 54.6689453,9.66114342 54.6689453,7.54003906 C54.6689453,5.41893471 55.1918893,3.79004475 56.237793,2.65332031 C57.2836966,1.51659588 58.7763575,0.948242188 60.7158203,0.948242188 C62.6259861,0.948242188 64.1025338,1.52538485 65.1455078,2.6796875 C66.1884818,3.83399015 66.7099609,5.45995045 66.7099609,7.55761719 Z M56.9013672,7.55761719 C56.9013672,9.13965635 57.2206999,10.3393514 57.859375,11.1567383 C58.4980501,11.9741252 59.4443297,12.3828125 60.6982422,12.3828125 C61.9462953,12.3828125 62.8881804,11.9785197 63.5239258,11.1699219 C64.1596711,10.3613241 64.4775391,9.15723456 64.4775391,7.55761719 C64.4775391,5.98143743 64.1626008,4.78613688 63.5327148,3.97167969 C62.9028289,3.15722249 61.9638734,2.75 60.7158203,2.75 C59.4560484,2.75 58.5053743,3.15722249 57.8637695,3.97167969 C57.2221648,4.78613688 56.9013672,5.98143743 56.9013672,7.55761719 Z M70.4697266,14 L70.4697266,1.15039062 L72.5703125,1.15039062 L72.5703125,12.1982422 L78.0107422,12.1982422 L78.0107422,14 L70.4697266,14 Z M91.1220703,1.15039062 L91.1220703,9.46484375 C91.1220703,10.4140672 90.9184591,11.2446253 90.5112305,11.956543 C90.1040019,12.6684606 89.5151406,13.2163067 88.7446289,13.6000977 C87.9741172,13.9838886 87.0527397,14.1757812 85.9804688,14.1757812 C84.3867108,14.1757812 83.1474654,13.7539105 82.2626953,12.9101562 C81.3779253,12.066402 80.9355469,10.9062574 80.9355469,9.4296875 L80.9355469,1.15039062 L83.0449219,1.15039062 L83.0449219,9.28027344 C83.0449219,10.3408256 83.2910132,11.1230444 83.7832031,11.6269531 C84.2753931,12.1308619 85.0312449,12.3828125 86.0507812,12.3828125 C88.0312599,12.3828125 89.0214844,11.3427838 89.0214844,9.26269531 L89.0214844,1.15039062 L91.1220703,1.15039062 Z M99.8476562,14 L97.7470703,14 L97.7470703,2.95214844 L93.9677734,2.95214844 L93.9677734,1.15039062 L103.626953,1.15039062 L103.626953,2.95214844 L99.8476562,2.95214844 L99.8476562,14 Z M106.595703,14 L106.595703,1.15039062 L108.696289,1.15039062 L108.696289,14 L106.595703,14 Z M124.49707,7.55761719 C124.49707,9.64942452 123.974126,11.2753848 122.928223,12.4355469 C121.882319,13.5957089 120.401377,14.1757812 118.485352,14.1757812 C116.545889,14.1757812 115.056158,13.6001034 114.016113,12.4487305 C112.976069,11.2973575 112.456055,9.66114342 112.456055,7.54003906 C112.456055,5.41893471 112.978999,3.79004475 114.024902,2.65332031 C115.070806,1.51659588 116.563467,0.948242188 118.50293,0.948242188 C120.413095,0.948242188 121.889643,1.52538485 122.932617,2.6796875 C123.975591,3.83399015 124.49707,5.45995045 124.49707,7.55761719 Z M114.688477,7.55761719 C114.688477,9.13965635 115.007809,10.3393514 115.646484,11.1567383 C116.285159,11.9741252 117.231439,12.3828125 118.485352,12.3828125 C119.733405,12.3828125 120.67529,11.9785197 121.311035,11.1699219 C121.946781,10.3613241 122.264648,9.15723456 122.264648,7.55761719 C122.264648,5.98143743 121.94971,4.78613688 121.319824,3.97167969 C120.689938,3.15722249 119.750983,2.75 118.50293,2.75 C117.243158,2.75 116.292484,3.15722249 115.650879,3.97167969 C115.009274,4.78613688 114.688477,5.98143743 114.688477,7.55761719 Z M138.961914,14 L136.386719,14 L130.067383,3.76074219 L129.99707,3.76074219 L130.041016,4.33203125 C130.123047,5.42188045 130.164062,6.41796424 130.164062,7.3203125 L130.164062,14 L128.256836,14 L128.256836,1.15039062 L130.805664,1.15039062 L137.107422,11.3369141 L137.160156,11.3369141 C137.148437,11.2021478 137.125,10.71143 137.089844,9.86474609 C137.054687,9.01806217 137.037109,8.35742425 137.037109,7.8828125 L137.037109,1.15039062 L138.961914,1.15039062 L138.961914,14 Z" id="MAXSOLUTION"></path>
            </g>
        </g>
    </g>
</svg>